<?xml version="1.0" standalone="no"?>
<!DOCTYPE svg PUBLIC "-//W3C//DTD SVG 20010904//EN"
 "http://www.w3.org/TR/2001/REC-SVG-20010904/DTD/svg10.dtd">
<svg version="1.0" xmlns="http://www.w3.org/2000/svg"
 width="872.000000pt" height="126.000000pt" viewBox="0 0 872.000000 126.000000"
 preserveAspectRatio="xMidYMid meet">

<g transform="translate(0.000000,126.000000) scale(0.100000,-0.100000)"
fill="#000000" stroke="none">
<path d="M930 1239 c-128 -25 -255 -130 -286 -236 -19 -67 -15 -173 9 -218 21
-42 85 -103 132 -128 22 -11 113 -46 202 -77 258 -91 297 -123 291 -237 -3
-51 -9 -69 -34 -100 -62 -79 -192 -118 -315 -94 -141 28 -242 103 -385 288
-82 105 -173 155 -283 157 -82 1 -132 -16 -183 -62 -38 -34 -74 -89 -65 -98 2
-3 34 -13 70 -23 l65 -18 11 24 c14 32 70 55 113 46 65 -12 105 -42 171 -126
172 -220 356 -327 562 -327 285 0 491 192 445 415 -28 133 -85 172 -444 305
-154 56 -216 110 -216 188 0 114 120 202 274 202 82 0 122 -13 190 -60 63 -44
58 -45 126 13 l33 28 -29 30 c-40 42 -139 95 -202 108 -61 13 -187 13 -252 0z"/>
<path d="M1720 630 l0 -600 75 0 75 0 0 269 0 270 238 3 238 3 66 33 c74 36
133 96 170 170 28 57 31 175 5 232 -43 97 -125 169 -229 202 -52 16 -96 18
-349 18 l-289 0 0 -600z m593 459 c46 -13 109 -67 131 -113 18 -38 21 -102 7
-139 -16 -40 -73 -99 -116 -118 -35 -16 -69 -19 -252 -19 l-213 0 0 200 0 200
203 0 c111 0 219 -5 240 -11z"/>
<path d="M2860 630 l0 -600 420 0 420 0 0 65 0 65 -347 2 -348 3 -3 207 -2
208 315 0 315 0 0 65 0 65 -312 2 -313 3 -3 193 -2 192 335 0 335 0 0 65 0 65
-405 0 -405 0 0 -600z"/>
<path d="M3970 630 l0 -600 70 0 70 0 2 524 3 523 366 -521 367 -521 111 -3
111 -3 0 601 0 600 -75 0 -75 0 -2 -517 -3 -516 -360 514 -361 514 -112 3
-112 3 0 -601z"/>
<path d="M5390 630 l0 -600 254 0 c301 0 357 9 496 76 78 39 110 62 176 128
94 94 136 170 161 291 19 95 9 212 -27 307 -67 180 -241 324 -454 378 -69 17
-113 20 -343 20 l-263 0 0 -600z m565 455 c142 -37 256 -129 319 -257 33 -67
39 -89 44 -166 8 -152 -39 -266 -154 -371 -113 -104 -209 -131 -456 -131
l-178 0 0 470 0 470 183 0 c132 0 199 -4 242 -15z"/>
<path d="M6760 630 l0 -600 420 0 420 0 0 65 0 65 -347 2 -348 3 -3 207 -2
208 315 0 315 0 0 65 0 65 -312 2 -313 3 -3 193 -2 192 335 0 335 0 0 65 0 65
-405 0 -405 0 0 -600z"/>
<path d="M7870 630 l0 -600 420 0 420 0 0 65 0 65 -347 2 -348 3 -3 207 -2
208 315 0 315 0 0 65 0 65 -312 2 -313 3 -3 193 -2 192 335 0 335 0 0 65 0 65
-405 0 -405 0 0 -600z"/>
</g>
</svg>
